<?xml version="1.0" encoding="UTF-8" standalone="no"?>
<!-- Uploaded to: SVG Repo, www.svgrepo.com, Transformed by: SVG Repo Mixer Tools -->

<svg
   fill="#fcfcc0"
   width="800px"
   height="800px"
   viewBox="0 0 14.00 14.00"
   role="img"
   focusable="false"
   aria-hidden="true"
   stroke="#fcfcc0"
   stroke-width="0.00014"
   version="1.1"
   id="svg2"
   sodipodi:docname="maple-leaf.svg"
   inkscape:export-filename="maple-leaf.png"
   inkscape:export-xdpi="96"
   inkscape:export-ydpi="96"
   inkscape:version="1.3 (0e150ed6c4, 2023-07-21)"
   xmlns:inkscape="http://www.inkscape.org/namespaces/inkscape"
   xmlns:sodipodi="http://sodipodi.sourceforge.net/DTD/sodipodi-0.dtd"
   xmlns="http://www.w3.org/2000/svg"
   xmlns:svg="http://www.w3.org/2000/svg">
  <defs
     id="defs2" />
  <sodipodi:namedview
     id="namedview2"
     pagecolor="#ffffff"
     bordercolor="#000000"
     borderopacity="0.25"
     inkscape:showpageshadow="2"
     inkscape:pageopacity="0.0"
     inkscape:pagecheckerboard="0"
     inkscape:deskcolor="#d1d1d1"
     inkscape:zoom="0.74"
     inkscape:cx="400"
     inkscape:cy="400"
     inkscape:window-width="1440"
     inkscape:window-height="830"
     inkscape:window-x="-6"
     inkscape:window-y="-6"
     inkscape:window-maximized="1"
     inkscape:current-layer="svg2" />
  <g
     id="SVGRepo_bgCarrier"
     stroke-width="0" />
  <g
     id="SVGRepo_tracerCarrier"
     stroke-linecap="round"
     stroke-linejoin="round"
     stroke="#000"
     stroke-width="0.644">
    <path
       d="M6.7552516 12.9749c0-.014.026-.6078.057-1.3203.07-1.5937.069-1.5091.014-1.5845-.05-.069-.1077-.1023-.1772-.1023-.083 0-.6683.078-1.4387.1904-.7811.1145-1.2022.1714-1.2088.1634 0 0 .049-.178.114-.3894.1362-.4432.1431-.4966.081-.6202-.037-.072-.1235-.1458-1.3903-1.174-.7431-.6032-1.3498-1.1029-1.3482-1.1104 0-.01.1399-.078.3074-.1559.1674-.078.3208-.1578.3409-.1767.047-.044.06-.1153.039-.2162-.01-.044-.1191-.4536-.2445-.9098-.1254-.4562-.2262-.831-.224-.8328 0 0 .3498.069.7726.1586.4228.089.7944.1619.8258.1619.071 0 .1472-.039.186-.096.016-.024.073-.1961.1262-.3829.053-.1868.101-.3477.1063-.3576.01-.012.2307.2294.6279.6742.34.3808.6426.7132.6725.7388.063.054.1597.085.2205.072.09-.02.1459-.1186.1458-.2569 0-.039-.1214-.7149-.2696-1.5015-.1483-.7867-.2675-1.4324-.2648-1.4351 0 0 .196.092.4297.2111.4084.2074.4284.2159.5121.2164.1052.0006.1874-.04.2375-.1163.018-.028.2467-.4496.5077-.937.2609-.4873.4788-.8861.4842-.8861.01 0 .2234.3988.4845.8861.261.4874.4894.9087.5074.9363.037.056.099.098.1693.1137.098.022.1873-.011.6018-.223.2219-.1136.4057-.2042.4084-.2014 0 0-.1162.6486-.2645 1.4353-.1502.7968-.2696 1.4661-.2696 1.5111-.0001.1929.1119.2909.2654.2322.036-.014.086-.043.1113-.065.025-.022.3239-.3516.6633-.7316.3964004-.444.6204004-.6845.6266004-.6729.01.01.053.1708.1064.3576.053.1868.1099.3591.1262.3829.039.057.1148.096.1859.096.032 0 .4031-.073.8259-.1619.4228-.089.7704-.1604.7726-.1586 0 0-.1026.3902-.2328.863s-.2401.8987-.2442.9464c-.011.1313.011.1499.3886.3264.1717.08.3122.1507.3122.1566 0 .01-.6085.5047-1.3523 1.1084-1.2679004 1.0292-1.3548004 1.1025-1.3915004 1.175-.063.1236-.056.177.081.6202.065.2114.1163.3866.114.3894-.01.01-.4278-.049-1.2088-.1634-.7893-.1157-1.3563-.1904-1.4447-.1904-.069 0-.1496.065-.1857.1494-.023.054-.022.1261.01 1.3025.018.6851.033 1.3208.034 1.4128l.0008.1673h-.2206c-.2007 0-.2207 0-.2206-.025z"
       id="path1" />
  </g>
  <g
     id="SVGRepo_iconCarrier">
    <path
       d="m 6.7552516,12.9749 c 0,-0.014 0.026,-0.6078 0.057,-1.3203 0.07,-1.5937 0.069,-1.5091 0.014,-1.5845 -0.05,-0.069 -0.1077,-0.1023 -0.1772,-0.1023 -0.083,0 -0.6683,0.078 -1.4387,0.1904 -0.7811,0.1145 -1.2022,0.1714 -1.2088,0.1634 0,0 0.049,-0.178 0.114,-0.3894 0.1362,-0.4432 0.1431,-0.4966 0.081,-0.6202 -0.037,-0.072 -0.1235,-0.1458 -1.3903,-1.174 -0.7431,-0.6032 -1.3498,-1.1029 -1.3482,-1.1104 0,-0.01 0.1399,-0.078 0.3074,-0.1559 0.1674,-0.078 0.3208,-0.1578 0.3409,-0.1767 0.047,-0.044 0.06,-0.1153 0.039,-0.2162 -0.01,-0.044 -0.1191,-0.4536 -0.2445,-0.9098 -0.1254,-0.4562 -0.2262,-0.831 -0.224,-0.8328 0,0 0.3498,0.069 0.7726,0.1586 0.4228,0.089 0.7944,0.1619 0.8258,0.1619 0.071,0 0.1472,-0.039 0.186,-0.096 0.016,-0.024 0.073,-0.1961 0.1262,-0.3829 0.053,-0.1868 0.101,-0.3477 0.1063,-0.3576 0.01,-0.012 0.2307,0.2294 0.6279,0.6742 0.34,0.3808 0.6426,0.7132 0.6725,0.7388 0.063,0.054 0.1597,0.085 0.2205,0.072 0.09,-0.02 0.1459,-0.1186 0.1458,-0.2569 0,-0.039 -0.1214,-0.7149 -0.2696,-1.5015 -0.1483,-0.7867 -0.2675,-1.4324 -0.2648,-1.4351 0,0 0.196,0.092 0.4297,0.2111 0.4084,0.2074 0.4284,0.2159 0.5121,0.2164 0.1052,6e-4 0.1874,-0.04 0.2375,-0.1163 0.018,-0.028 0.2467,-0.4496 0.5077,-0.937 0.2609,-0.4873 0.4788,-0.8861 0.4842,-0.8861 0.01,0 0.2234,0.3988 0.4845,0.8861 0.261,0.4874 0.4894,0.9087 0.5074,0.9363 0.037,0.056 0.099,0.098 0.1693,0.1137 0.098,0.022 0.1873,-0.011 0.6018,-0.223 0.2219,-0.1136 0.4057,-0.2042 0.4084,-0.2014 0,0 -0.1162,0.6486 -0.2645,1.4353 -0.1502,0.7968 -0.2696,1.4661 -0.2696,1.5111 -10e-5,0.1929 0.1119,0.2909 0.2654,0.2322 0.036,-0.014 0.086,-0.043 0.1113,-0.065 0.025,-0.022 0.3239,-0.3516 0.6633,-0.7316 0.3964004,-0.444 0.6204004,-0.6845 0.6266004,-0.6729 0.01,0.01 0.053,0.1708 0.1064,0.3576 0.053,0.1868 0.1099,0.3591 0.1262,0.3829 0.039,0.057 0.1148,0.096 0.1859,0.096 0.032,0 0.4031,-0.073 0.8259,-0.1619 0.4228,-0.089 0.7704,-0.1604 0.7726,-0.1586 0,0 -0.1026,0.3902 -0.2328,0.863 -0.1302,0.4728 -0.2401,0.8987 -0.2442,0.9464 -0.011,0.1313 0.011,0.1499 0.3886,0.3264 0.1717,0.08 0.3122,0.1507 0.3122,0.1566 0,0.01 -0.6085,0.5047 -1.3523,1.1084 -1.2679004,1.0292 -1.3548004,1.1025 -1.3915004,1.175 -0.063,0.1236 -0.056,0.177 0.081,0.6202 0.065,0.2114 0.1163,0.3866 0.114,0.3894 -0.01,0.01 -0.4278,-0.049 -1.2088,-0.1634 -0.7893,-0.1157 -1.3563,-0.1904 -1.4447,-0.1904 -0.069,0 -0.1496,0.065 -0.1857,0.1494 -0.023,0.054 -0.022,0.1261 0.01,1.3025 0.018,0.6851 0.033,1.3208 0.034,1.4128 l 8e-4,0.1673 h -0.2206 c -0.2007,0 -0.2207,0 -0.2206,-0.025 z"
       id="path2"
       style="display:inline;fill:#ededed;fill-opacity:1" />
  </g>
</svg>
